HIERARCHY
ROOT Pelvis
{
	OFFSET 0.000000 0.000000 0.000000
	CHANNELS 6 Xposition Yposition Zposition Xrotation Yrotation Zrotation
	JOINT LeftUpLeg_virtual
	{
		OFFSET 0.000000 0.000000 0.000000
		CHANNELS 3 Xrotation Yrotation Zrotation
		JOINT LeftUpLeg
		{
			OFFSET 18.735201 -5.666702 -4.541200
			CHANNELS 3 Xrotation Yrotation Zrotation
			JOINT LeftLeg
			{
				OFFSET -0.021200 -31.938179 0.493100
				CHANNELS 3 Xrotation Yrotation Zrotation
				JOINT LeftFoot
				{
					OFFSET 0.021200 -31.938179 -4.336299
					CHANNELS 3 Xrotation Yrotation Zrotation
					JOINT LeftToeBase
					{
						OFFSET 0.943001 -26.722000 15.023500
						CHANNELS 3 Xrotation Yrotation Zrotation
						End Site
						{
							OFFSET 0 0 0
						}
					}
				}
			}
		}
	}
	JOINT RightUpLeg_virtual
	{
		OFFSET 0.000000 0.000000 0.000000
		CHANNELS 3 Xrotation Yrotation Zrotation
		JOINT RightUpLeg
		{
			OFFSET -18.735201 -5.666702 -4.541200
			CHANNELS 3 Xrotation Yrotation Zrotation
			JOINT RightLeg
			{
				OFFSET 0.018946 -31.938133 0.493100
				CHANNELS 3 Xrotation Yrotation Zrotation
				JOINT RightFoot
				{
					OFFSET -0.018946 -31.938126 -4.336299
					CHANNELS 3 Xrotation Yrotation Zrotation
					JOINT RightToeBase
					{
						OFFSET -0.943001 -26.722004 15.023500
						CHANNELS 3 Xrotation Yrotation Zrotation
						End Site
						{
							OFFSET 0 0 0
						}
					}
				}
			}
		}
	}
	JOINT Hips_virtual
	{
		OFFSET 0.000000 0.000000 0.000000
		CHANNELS 3 Xrotation Yrotation Zrotation
		JOINT Hips
		{
			OFFSET -0.000000 -0.000000 -0.000000
			CHANNELS 3 Xrotation Yrotation Zrotation
			JOINT Spine
			{
				OFFSET 0.000000 10.199997 -0.299500
				CHANNELS 3 Xrotation Yrotation Zrotation
				JOINT Spine1
				{
					OFFSET 0.000000 11.900002 -1.516600
					CHANNELS 3 Xrotation Yrotation Zrotation
					JOINT Spine2
					{
						OFFSET 0.000000 13.600006 -2.842500
						CHANNELS 3 Xrotation Yrotation Zrotation
						JOINT Neck_virtual
						{
							OFFSET 0.000000 0.000000 0.000000
							CHANNELS 3 Xrotation Yrotation Zrotation
							JOINT Neck
							{
								OFFSET 0.000000 9.624100 -2.890100
								CHANNELS 3 Xrotation Yrotation Zrotation
								JOINT Head
								{
									OFFSET 0.000000 14.068802 -1.351900
									CHANNELS 3 Xrotation Yrotation Zrotation
									End Site
									{
										OFFSET 0 0 0
									}
								}
							}
						}
						JOINT LeftShoulder_virtual
						{
							OFFSET 0.000000 0.000000 0.000000
							CHANNELS 3 Xrotation Yrotation Zrotation
							JOINT LeftShoulder
							{
								OFFSET 15.263000 10.923401 -0.547700
								CHANNELS 3 Xrotation Yrotation Zrotation
								JOINT LeftArm
								{
									OFFSET 25.438599 -2.830597 -13.032500
									CHANNELS 3 Xrotation Yrotation Zrotation
									JOINT LeftForeArm
									{
										OFFSET 29.960503 0.000000 0.000000
										CHANNELS 3 Xrotation Yrotation Zrotation
										JOINT LeftHand
										{
											OFFSET 27.849251 0.000000 0.000000
											CHANNELS 3 Xrotation Yrotation Zrotation
											End Site
											{
												OFFSET 0 0 0
											}
										}
									}
								}
							}
						}
						JOINT RightShoulder_virtual
						{
							OFFSET 0.000000 0.000000 0.000000
							CHANNELS 3 Xrotation Yrotation Zrotation
							JOINT RightShoulder
							{
								OFFSET -15.263000 10.923401 -0.547700
								CHANNELS 3 Xrotation Yrotation Zrotation
								JOINT RightArm
								{
									OFFSET -25.438599 -2.830597 -13.032500
									CHANNELS 3 Xrotation Yrotation Zrotation
									JOINT RightForeArm
									{
										OFFSET -29.960503 0.000000 0.000000
										CHANNELS 3 Xrotation Yrotation Zrotation
										JOINT RightHand
										{
											OFFSET -27.849251 0.000000 0.000000
											CHANNELS 3 Xrotation Yrotation Zrotation
											End Site
											{
												OFFSET 0 0 0
											}
										}
									}
								}
							}
						}
					}
				}
			}
		}
	}
}
MOTION
Frames: 12
Frame Time: 0.03333333
-71.204277 22.700283 5.875320 0.000000 0.000000 0.000000 -59.275660 9.165894 98.595871 -34.536110 25.798446 3.840040 64.799330 -3.905955 -7.748171 -22.132376 -11.258711 3.500517 0.000000 0.000000 0.000000 -59.275660 9.165894 98.595871 -63.945788 -7.621053 -34.354339 119.088446 3.859606 6.696653 7.444050 10.751371 27.522792 0.000000 0.000000 0.000000 -59.275660 9.165894 98.595871 -0.000001 -0.000001 0.000001 13.670502 -0.288286 -5.963912 16.440305 0.246666 -3.275168 0.000000 0.000000 0.000000 16.425635 0.382585 -3.359047 10.960305 2.494064 -2.543663 0.000000 0.000000 0.000000 16.425635 0.382585 -3.359047 5.814968 1.516418 -4.688141 -74.915257 -6.740965 -27.974756 58.640815 -0.227362 0.365224 0.000000 0.000000 0.000000 16.425635 0.382585 -3.359047 4.350987 9.519743 -3.915175 -1.908439 -4.831187 1.339514 32.754626 33.258746 -23.829340 0.000000 0.000000 0.000000 
-75.635345 18.504692 6.497002 0.000000 0.000000 0.000000 -58.027853 -0.902029 102.553351 -24.769205 16.335973 1.579411 64.913653 10.092084 -8.178086 -33.728697 -3.921881 -6.525572 0.000000 0.000000 0.000000 -58.027853 -0.902029 102.553351 -64.008339 -10.160308 -30.516168 124.938285 -11.042591 2.739207 -9.028474 5.693132 20.022438 0.000000 0.000000 0.000000 -58.027853 -0.902029 102.553351 0.000000 0.000001 0.000000 17.619807 -1.529032 -3.675551 13.624171 -1.732720 -2.465772 0.000000 0.000000 0.000000 13.638204 -1.655713 -2.445537 12.133337 1.661009 -2.667284 0.000000 0.000000 0.000000 13.638204 -1.655713 -2.445537 5.241389 7.707911 -14.772695 -82.451503 -2.394243 -28.832865 71.492143 -0.210151 0.553452 0.000000 0.000000 0.000000 13.638204 -1.655713 -2.445537 4.001947 5.115521 -8.837086 0.941038 11.676214 -0.032725 16.412176 34.300158 -10.963368 0.000000 0.000000 0.000000 
-78.124725 17.041092 6.655144 0.000000 0.000000 0.000000 -58.930059 -8.530504 107.360410 -19.772834 9.192152 -1.879400 63.608240 25.025613 -7.532285 -26.734219 2.950141 -11.607730 0.000000 0.000000 0.000000 -58.930059 -8.530504 107.360410 -58.029991 -8.375035 -32.883276 122.464841 -15.205377 2.219414 -11.007110 2.825422 15.928145 0.000000 0.000000 0.000000 -58.930059 -8.530504 107.360410 -0.000000 -0.000001 -0.000001 17.220813 -0.898719 -5.377682 11.398450 -0.584632 -0.043192 0.000000 0.000000 0.000000 11.409024 -0.296430 -0.105067 10.854607 0.311558 -1.860125 0.000000 0.000000 0.000000 11.409024 -0.296430 -0.105067 2.907744 8.859724 -22.825136 -91.371491 5.872683 -27.433303 67.652785 -0.270061 0.721410 0.000000 0.000000 0.000000 11.409024 -0.296430 -0.105067 5.114522 27.130550 -12.631158 5.284853 -4.495289 -1.329833 24.650088 25.912187 -13.127687 0.000000 0.000000 0.000000 
-84.872955 15.643291 4.750298 0.000000 0.000000 0.000000 -65.507047 -13.124148 108.027638 -25.347908 2.965852 -5.135885 49.335454 31.457348 -2.278796 8.292668 3.797741 7.381256 0.000000 0.000000 0.000000 -65.507047 -13.124148 108.027638 -44.375418 -10.698749 -39.081598 105.996545 -13.589536 6.082290 -6.791537 2.421876 23.280141 0.000000 0.000000 0.000000 -65.507047 -13.124148 108.027638 -0.000001 -0.000002 -0.000000 15.312155 1.071972 -4.973472 10.109191 2.099976 3.898068 0.000000 0.000000 0.000000 10.066525 2.539765 3.718517 7.062760 -1.305823 -1.391635 0.000000 0.000000 0.000000 10.066525 2.539765 3.718517 1.459235 5.850929 -21.104772 -91.026286 18.797321 -28.629496 23.564856 -0.306015 0.116262 0.000000 0.000000 0.000000 10.066525 2.539765 3.718517 6.068702 10.397460 -16.699150 -9.280413 9.533692 4.128692 32.684187 20.235390 -12.252946 0.000000 0.000000 0.000000 
-89.442284 14.849419 1.724335 0.000000 0.000000 0.000000 -73.774424 -16.133602 105.613487 -25.022683 -6.297665 -1.622127 39.498523 37.640496 -1.149139 24.792892 8.147267 2.785848 0.000000 0.000000 0.000000 -73.774424 -16.133602 105.613487 -39.974082 -13.740150 -43.242013 89.740858 -14.910095 10.609518 4.052338 3.596055 20.972639 0.000000 0.000000 0.000000 -73.774424 -16.133602 105.613487 0.000000 0.000000 0.000000 15.603337 0.558913 -2.047126 8.202057 0.361832 4.664760 0.000000 0.000000 0.000000 8.202684 0.736753 4.594221 2.924556 -1.387006 -1.075259 0.000000 0.000000 0.000000 8.202684 0.736753 4.594221 0.639255 -0.327118 -20.375240 -99.749824 37.617834 -14.407522 27.688846 -27.209349 19.480948 0.000000 0.000000 0.000000 8.202684 0.736753 4.594221 6.052450 5.294182 -14.880288 -13.609569 13.412997 5.858967 18.798199 23.131610 -6.242419 0.000000 0.000000 0.000000 
-91.406502 16.276669 1.050159 0.000000 0.000000 0.000000 -77.958864 -15.603222 102.972834 -25.745131 -15.379143 5.796210 44.399457 41.019148 -5.166074 28.942288 9.484271 -9.859976 0.000000 0.000000 0.000000 -77.958864 -15.603222 102.972834 -37.769163 -12.968801 -40.858383 78.352829 -18.121959 11.905704 11.916453 3.936335 20.026567 0.000000 0.000000 0.000000 -77.958864 -15.603222 102.972834 0.000000 -0.000001 0.000001 14.014367 0.131076 0.374733 5.715631 -0.628961 3.513430 0.000000 0.000000 0.000000 5.720563 -0.426742 3.526001 1.392605 -1.444070 0.250663 0.000000 0.000000 0.000000 5.720563 -0.426742 3.526001 0.648430 -1.427990 -15.892710 -96.771035 40.301944 -1.127234 60.931086 -17.973078 48.298091 0.000000 0.000000 0.000000 5.720563 -0.426742 3.526001 7.795405 10.130682 -12.171118 -10.263560 6.895270 4.151065 2.439849 25.036407 1.580959 0.000000 0.000000 0.000000 
-93.921799 17.920521 0.563175 0.000000 0.000000 0.000000 -80.352299 -13.525005 101.796361 -25.330008 -16.828048 12.384525 43.615874 36.389482 -7.397325 28.083344 9.448861 -15.186596 0.000000 0.000000 0.000000 -80.352299 -13.525005 101.796361 -36.359040 -11.682630 -37.427155 68.723451 -20.441913 11.077290 16.583744 3.464489 21.503780 0.000000 0.000000 0.000000 -80.352299 -13.525005 101.796361 -0.000001 0.000001 0.000000 11.009929 0.051365 0.986515 4.462534 -0.860181 4.308215 0.000000 0.000000 0.000000 4.467257 -0.673244 4.329112 1.936815 -1.380676 0.425040 0.000000 0.000000 0.000000 4.467257 -0.673244 4.329112 0.752395 -1.425742 -12.362569 -87.065036 45.716406 -3.750406 73.314014 -3.231328 59.909228 0.000000 0.000000 0.000000 4.467257 -0.673244 4.329112 7.190138 10.244765 -14.011989 -7.402684 4.030691 3.251426 -12.118738 23.194387 8.708948 0.000000 0.000000 0.000000 
-96.578133 19.270992 0.374409 0.000000 0.000000 0.000000 -82.862953 -13.189094 102.163101 -28.228962 -5.698242 17.212842 42.501289 25.091164 -5.688588 20.631508 6.006516 -10.511121 0.000000 0.000000 0.000000 -82.862953 -13.189094 102.163101 -34.495368 -11.340476 -37.407399 61.442606 -20.916297 9.683874 20.073118 3.659974 22.097414 0.000000 0.000000 0.000000 -82.862953 -13.189094 102.163101 0.000000 0.000000 0.000001 10.445635 -0.256104 0.265298 3.742871 -1.368777 5.395237 0.000000 0.000000 0.000000 3.759494 -1.127130 5.431538 3.690951 -1.640897 0.639443 0.000000 0.000000 0.000000 3.759494 -1.127130 5.431538 0.756077 -0.392981 -11.673081 -86.050077 38.063056 -5.469437 65.642899 -5.288504 42.978327 0.000000 0.000000 0.000000 3.759494 -1.127130 5.431538 7.014583 10.097645 -18.110279 -6.366559 0.403359 3.270826 -21.274257 20.195302 12.476672 0.000000 0.000000 0.000000 
-99.086548 20.359100 0.481667 0.000000 0.000000 0.000000 -85.139025 -13.037350 103.088148 -31.743574 5.660010 20.817915 41.861116 17.131031 -2.766141 14.293707 0.807059 -5.373859 0.000000 0.000000 0.000000 -85.139025 -13.037350 103.088148 -33.315037 -11.411183 -38.260237 57.316632 -22.063050 8.041373 22.510231 4.190963 22.157759 0.000000 0.000000 0.000000 -85.139025 -13.037350 103.088148 0.000001 -0.000000 -0.000001 11.130754 -0.364191 -0.218989 3.179484 -1.464745 5.097351 0.000000 0.000000 0.000000 3.199223 -1.214299 5.143499 4.714311 -2.404124 1.830407 0.000000 0.000000 0.000000 3.199223 -1.214299 5.143499 0.587089 0.956043 -12.755068 -88.389888 30.891354 -7.242830 50.869033 -12.562981 34.346709 0.000000 0.000000 0.000000 3.199223 -1.214299 5.143499 5.767273 6.668614 -19.642304 -6.502592 -0.748321 3.239944 -24.359873 17.475184 12.792270 0.000000 0.000000 0.000000 
-101.453110 20.764736 0.089104 0.000000 0.000000 0.000000 -87.208948 -13.077713 103.346090 -33.341534 10.454259 22.522183 40.789330 11.349355 -0.341958 12.276085 -1.122175 -3.516147 0.000000 0.000000 0.000000 -87.208948 -13.077713 103.346090 -32.137041 -12.579282 -39.568508 55.495782 -23.684316 7.565669 23.287588 4.290055 20.937532 0.000000 0.000000 0.000000 -87.208948 -13.077713 103.346090 0.000001 0.000000 0.000001 12.694900 -0.249012 -0.001967 2.894117 -1.427968 4.788680 0.000000 0.000000 0.000000 2.910421 -1.164661 4.843026 4.458156 -3.282202 2.829812 0.000000 0.000000 0.000000 2.910421 -1.164661 4.843026 0.721429 1.183914 -11.724383 -87.063506 29.661268 -8.299793 49.102725 -12.245725 31.689223 0.000000 0.000000 0.000000 2.910421 -1.164661 4.843026 3.976177 0.728459 -21.062304 -8.191039 -0.703269 3.890455 -24.804115 16.740003 12.062621 0.000000 0.000000 0.000000 
-102.900612 20.599495 -0.935078 0.000000 0.000000 0.000000 -87.549973 -12.021071 103.824128 -32.494953 9.579149 22.829255 39.087455 8.040675 0.043403 16.208193 -0.891411 -4.536652 0.000000 0.000000 0.000000 -87.549973 -12.021071 103.824128 -34.000142 -15.482494 -44.069931 54.957529 -20.635272 8.789617 23.277112 3.687985 19.073694 0.000000 0.000000 0.000000 -87.549973 -12.021071 103.824128 0.000000 0.000000 -0.000001 13.254336 -0.151088 0.218085 2.135522 -1.336624 4.453752 0.000000 0.000000 0.000000 2.148322 -1.083443 4.511139 3.889858 -3.887201 3.382703 0.000000 0.000000 0.000000 2.148322 -1.083443 4.511139 0.599800 1.534493 -9.744983 -73.548044 33.107785 -10.271053 43.833743 -17.429181 33.481427 0.000000 0.000000 0.000000 2.148322 -1.083443 4.511139 1.483232 -6.269953 -22.240445 -13.827073 2.432350 5.344108 -19.306966 15.442066 8.524942 0.000000 0.000000 0.000000 
-103.879112 19.520363 -2.102261 0.000000 0.000000 0.000000 -88.572903 -10.436293 103.983647 -30.405523 6.119538 22.156241 37.433094 7.618519 0.030691 17.462955 -3.628502 -7.248320 0.000000 0.000000 0.000000 -88.572903 -10.436293 103.983647 -36.015215 -20.901168 -51.159244 56.361546 -22.696044 12.532150 24.796361 5.376815 16.907269 0.000000 0.000000 0.000000 -88.572903 -10.436293 103.983647 0.000000 0.000000 0.000001 12.329650 -0.362334 0.489626 0.939104 -1.755816 4.465095 0.000000 0.000000 0.000000 0.955604 -1.518136 4.545928 3.503723 -4.130879 3.551817 0.000000 0.000000 0.000000 0.955604 -1.518136 4.545928 0.548842 1.694642 -8.412726 -65.238941 37.455538 -11.967042 43.938282 -20.031184 37.265314 0.000000 0.000000 0.000000 0.955604 -1.518136 4.545928 2.920179 -4.292345 -24.974114 -23.556144 -2.284947 6.252578 -15.965996 9.258140 2.928748 0.000000 0.000000 0.000000 
